<svg width="159" height="159" viewBox="0 0 159 159" fill="none" xmlns="http://www.w3.org/2000/svg">
<rect x="0.782471" y="0.486969" width="158" height="158" rx="79" fill="#DC2626"/>
<path d="M49.7236 50.552L50.2451 49.9479C52.1574 48.0356 55.1498 47.8618 57.2585 49.4264L57.8626 49.9479L79.1902 71.2731L100.518 49.9479C102.621 47.8444 106.032 47.8444 108.135 49.9479C110.239 52.0514 110.239 55.4619 108.135 57.5654L86.8101 78.893L108.135 100.221C110.048 102.133 110.221 105.125 108.657 107.234L108.135 107.838C106.223 109.75 103.231 109.924 101.122 108.36L100.518 107.838L79.1902 86.5129L57.8626 107.838C55.7591 109.942 52.3486 109.942 50.2451 107.838C48.1416 105.735 48.1416 102.324 50.2451 100.221L71.5703 78.893L50.2451 57.5654C48.3328 55.6531 48.159 52.6607 49.7236 50.552L50.2451 49.9479L49.7236 50.552Z" fill="white"/>
</svg>
