<svg width="193" height="193" viewBox="0 0 193 193" fill="none" xmlns="http://www.w3.org/2000/svg">
<path d="M96.4214 16.5657C52.2696 16.5657 16.291 52.5442 16.291 96.6961C16.291 140.848 52.2696 176.827 96.4214 176.827C140.573 176.827 176.552 140.848 176.552 96.6961C176.552 52.5442 140.573 16.5657 96.4214 16.5657ZM134.724 78.2661L89.2898 123.7C88.168 124.822 86.6455 125.463 85.0429 125.463C83.4403 125.463 81.9178 124.822 80.796 123.7L58.1191 101.023C55.7953 98.6994 55.7953 94.8531 58.1191 92.5293C60.4429 90.2055 64.2891 90.2055 66.6129 92.5293L85.0429 110.959L126.23 69.7723C128.554 67.4485 132.4 67.4485 134.724 69.7723C137.048 72.0961 137.048 75.8622 134.724 78.2661Z" fill="#23A26D"/>
</svg>
